<svg width="18" height="19" viewBox="0 0 18 19" fill="none" xmlns="http://www.w3.org/2000/svg">
<path d="M9 2.42229C11.403 2.42229 11.688 2.43129 12.637 2.47429C13.514 2.51429 13.991 2.66129 14.308 2.78429C14.728 2.94729 15.028 3.14229 15.343 3.45729C15.658 3.77229 15.853 4.07229 16.016 4.49229C16.139 4.80929 16.286 5.28629 16.326 6.16329C16.369 7.11229 16.378 7.39729 16.378 9.80029C16.378 12.2033 16.369 12.4883 16.326 13.4373C16.286 14.3143 16.139 14.7913 16.016 15.1083C15.853 15.5283 15.658 15.8283 15.343 16.1433C15.028 16.4583 14.728 16.6533 14.308 16.8163C13.991 16.9393 13.514 17.0863 12.637 17.1263C11.688 17.1693 11.404 17.1783 9 17.1783C6.596 17.1783 6.312 17.1693 5.363 17.1263C4.486 17.0863 4.009 16.9393 3.692 16.8163C3.272 16.6533 2.972 16.4583 2.657 16.1433C2.342 15.8283 2.147 15.5283 1.984 15.1083C1.861 14.7913 1.714 14.3143 1.674 13.4373C1.631 12.4883 1.622 12.2033 1.622 9.80029C1.622 7.39729 1.631 7.11229 1.674 6.16329C1.714 5.28629 1.861 4.80929 1.984 4.49229C2.147 4.07229 2.342 3.77229 2.657 3.45729C2.972 3.14229 3.272 2.94729 3.692 2.78429C4.009 2.66129 4.486 2.51429 5.363 2.47429C6.312 2.43129 6.597 2.42229 9 2.42229ZM9 0.800293C6.556 0.800293 6.249 0.810293 5.289 0.854293C4.331 0.898293 3.677 1.05029 3.105 1.27229C2.513 1.50229 2.011 1.81029 1.511 2.31129C1.011 2.81129 0.703 3.31329 0.473 3.90529C0.25 4.47729 0.0979999 5.13129 0.0539999 6.08929C0.0099999 7.04929 0 7.35629 0 9.80029C0 12.2443 0.0099999 12.5513 0.0539999 13.5113C0.0979999 14.4693 0.25 15.1233 0.472 15.6963C0.702 16.2883 1.01 16.7903 1.51 17.2903C2.01 17.7903 2.512 18.0983 3.104 18.3283C3.676 18.5503 4.331 18.7033 5.289 18.7463C6.249 18.7903 6.556 18.8003 9 18.8003C11.444 18.8003 11.751 18.7903 12.711 18.7463C13.669 18.7023 14.323 18.5503 14.896 18.3283C15.488 18.0983 15.99 17.7903 16.49 17.2903C16.99 16.7903 17.298 16.2883 17.528 15.6963C17.75 15.1243 17.903 14.4693 17.946 13.5113C17.99 12.5513 18 12.2443 18 9.80029C18 7.35629 17.99 7.04929 17.946 6.08929C17.902 5.13129 17.75 4.47729 17.528 3.90429C17.298 3.31229 16.99 2.81029 16.49 2.31029C15.99 1.81029 15.488 1.50229 14.896 1.27229C14.324 1.05029 13.669 0.897293 12.711 0.854293C11.751 0.810293 11.444 0.800293 9 0.800293ZM9 5.17829C6.448 5.17829 4.378 7.24729 4.378 9.80029C4.378 12.3533 6.448 14.4223 9 14.4223C11.552 14.4223 13.622 12.3533 13.622 9.80029C13.622 7.24729 11.552 5.17829 9 5.17829ZM9 12.8003C7.343 12.8003 6 11.4573 6 9.80029C6 8.14329 7.343 6.80029 9 6.80029C10.657 6.80029 12 8.14329 12 9.80029C12 11.4573 10.657 12.8003 9 12.8003ZM13.804 3.91629C13.208 3.91629 12.724 4.40029 12.724 4.99629C12.724 5.59229 13.208 6.07629 13.804 6.07629C14.4 6.07629 14.884 5.59229 14.884 4.99629C14.884 4.40029 14.401 3.91629 13.804 3.91629Z" fill="white"/>
</svg>
