<svg width="18" height="19" viewBox="0 0 18 19" fill="none" xmlns="http://www.w3.org/2000/svg">
<path d="M16.7 0.0300293H1.3C0.582 0.0300293 0 0.612029 0 1.33003V16.73C0 17.448 0.582 18.03 1.3 18.03H16.7C17.418 18.03 18 17.448 18 16.73V1.33003C18 0.612029 17.418 0.0300293 16.7 0.0300293ZM5.339 15.368H2.667V6.77803H5.339V15.368ZM4.004 5.60403C3.147 5.60403 2.455 4.91003 2.455 4.05603C2.455 3.20103 3.146 2.50803 4.004 2.50803C4.858 2.50803 5.551 3.20203 5.551 4.05603C5.551 4.91103 4.858 5.60403 4.004 5.60403ZM15.339 15.368H12.67V11.191C12.67 10.195 12.653 8.91303 11.283 8.91303C9.894 8.91303 9.682 9.99903 9.682 11.119V15.368H7.015V6.77803H9.574V7.95203H9.611C9.967 7.27703 10.838 6.56503 12.137 6.56503C14.84 6.56503 15.34 8.34403 15.34 10.657L15.339 15.368Z" fill="white"/>
</svg>
