<svg width="21" height="17" viewBox="0 0 21 17" fill="none" xmlns="http://www.w3.org/2000/svg">
<path d="M20.23 1.95403C19.494 2.28003 18.703 2.50103 17.873 2.60003C18.72 2.09203 19.371 1.28803 19.677 0.330029C18.884 0.80003 18.006 1.14203 17.071 1.32603C16.324 0.528029 15.257 0.0300293 14.077 0.0300293C11.811 0.0300293 9.97398 1.86703 9.97398 4.13303C9.97398 4.45503 10.01 4.76803 10.08 5.06803C6.66998 4.89703 3.64698 3.26403 1.62298 0.781029C1.26998 1.38703 1.06698 2.09203 1.06698 2.84403C1.06698 4.26803 1.79098 5.52303 2.89198 6.25903C2.21898 6.23803 1.58698 6.05303 1.03298 5.74603C1.03298 5.76303 1.03298 5.78003 1.03298 5.79803C1.03298 7.78603 2.44698 9.44503 4.32498 9.82103C3.98098 9.91503 3.61798 9.96503 3.24398 9.96503C2.97998 9.96503 2.72298 9.93903 2.47198 9.89103C2.99398 11.521 4.50998 12.707 6.30498 12.741C4.90098 13.841 3.13098 14.497 1.20898 14.497C0.877981 14.497 0.55098 14.478 0.22998 14.44C2.04598 15.604 4.20298 16.283 6.51998 16.283C14.067 16.283 18.195 10.031 18.195 4.60803C18.195 4.43003 18.191 4.25303 18.183 4.07703C18.985 3.50003 19.68 2.77703 20.23 1.95403Z" fill="white"/>
</svg>
