<svg width="20" height="15" viewBox="0 0 20 15" fill="none" xmlns="http://www.w3.org/2000/svg">
<path d="M19.8 3.80109C19.8 3.80109 19.605 2.42309 19.005 1.81609C18.245 1.01909 17.392 1.01509 17.001 0.96909C14.202 0.76709 10.004 0.76709 10.004 0.76709H9.995C9.995 0.76709 5.797 0.76709 2.998 0.96909C2.608 1.01609 1.756 1.02009 0.995 1.81609C0.395 2.42309 0.2 3.80109 0.2 3.80109C0.2 3.80109 0 5.42009 0 7.03809V8.55509C0 10.1731 0.2 11.7921 0.2 11.7921C0.2 11.7921 0.395 13.1701 0.995 13.7771C1.756 14.5741 2.755 14.5481 3.2 14.6321C4.8 14.7851 10 14.8331 10 14.8331C10 14.8331 14.203 14.8271 17.001 14.6241C17.392 14.5771 18.244 14.5731 19.005 13.7771C19.605 13.1701 19.8 11.7921 19.8 11.7921C19.8 11.7921 20 10.1741 20 8.55509V7.03809C20 5.42009 19.8 3.80109 19.8 3.80109ZM7.935 10.3941L7.934 4.77409L13.338 7.59409L7.935 10.3941Z" fill="white"/>
</svg>
